# xmcd
#
# Track frame offsets:
#	150
#	7210
#	23245
#	42103
#	63608
#	85601
#	109075
#	127878
#	156623
#	177403
#	211626
#
# Disc length: 3267 seconds
#
# Revision: 2
# Processed by: cddbd v1.5.1PL2 Copyright (c) Steve Scherf et al.
# Submitted via: EasyCDDAExtractor 8.0.2.1
#
DISCID=8e0cc10b
DTITLE=Judas Priest - Centrum Worcester 07-12-90 Disc 1
DYEAR=1990
DGENRE=Hard Rock
TTITLE0=Intro
TTITLE1=Hell Bent For Leather
TTITLE2=Grinder
TTITLE3=The Hellion - Electric Eye
TTITLE4=All Guns Blazing
TTITLE5=The Sentinel
TTITLE6=Metal Gods
TTITLE7=Night Crawler
TTITLE8=The Ripper
TTITLE9=Beyond The Realms Of Death
TTITLE10=Riding On The Wind/Drum solo(tape flip during solo)
EXTD=
EXTT0=
EXTT1=
EXTT2=
EXTT3=
EXTT4=
EXTT5=
EXTT6=
EXTT7=
EXTT8=
EXTT9=
EXTT10=
PLAYORDER=
